HIERARCHY
ROOT Hips
{
	OFFSET 0.000000 0.000000 0.000000
	CHANNELS 6 Xposition Yposition Zposition Xrotation Yrotation Zrotation
	JOINT LeftUpLeg_virtual
	{
		OFFSET 0.000000 0.000000 0.000000
		CHANNELS 3 Xrotation Yrotation Zrotation
		JOINT LeftUpLeg
		{
			OFFSET 11.394100 -6.187798 -0.413800
			CHANNELS 3 Xrotation Yrotation Zrotation
			JOINT LeftLeg
			{
				OFFSET 0.430247 -32.302673 3.732800
				CHANNELS 3 Xrotation Yrotation Zrotation
				JOINT LeftFoot
				{
					OFFSET -0.430247 -48.264931 -6.423300
					CHANNELS 3 Xrotation Yrotation Zrotation
					JOINT LeftToeBase
					{
						OFFSET 4.230900 -16.068199 23.438400
						CHANNELS 3 Xrotation Yrotation Zrotation
						JOINT LeftToe_End
						{
							OFFSET 4.510700 0.695400 19.974600
							CHANNELS 3 Xrotation Yrotation Zrotation
							End Site
							{
								OFFSET 0 0 0
							}
						}
					}
				}
			}
		}
	}
	JOINT RightUpLeg_virtual
	{
		OFFSET 0.000000 0.000000 0.000000
		CHANNELS 3 Xrotation Yrotation Zrotation
		JOINT RightUpLeg
		{
			OFFSET -11.333700 -6.187798 -0.413800
			CHANNELS 3 Xrotation Yrotation Zrotation
			JOINT RightLeg
			{
				OFFSET -0.430392 -32.302628 3.733000
				CHANNELS 3 Xrotation Yrotation Zrotation
				JOINT RightFoot
				{
					OFFSET 0.430392 -48.264973 -6.423500
					CHANNELS 3 Xrotation Yrotation Zrotation
					JOINT RightToeBase
					{
						OFFSET -4.230900 -16.068199 23.438400
						CHANNELS 3 Xrotation Yrotation Zrotation
						JOINT RightToe_End
						{
							OFFSET -4.510700 0.695400 19.974600
							CHANNELS 3 Xrotation Yrotation Zrotation
							End Site
							{
								OFFSET 0 0 0
							}
						}
					}
				}
			}
		}
	}
	JOINT Spine_virtual
	{
		OFFSET 0.000000 0.000000 0.000000
		CHANNELS 3 Xrotation Yrotation Zrotation
		JOINT Spine
		{
			OFFSET -0.002400 12.777504 0.315300
			CHANNELS 3 Xrotation Yrotation Zrotation
			JOINT Spine1
			{
				OFFSET -0.002067 5.816869 0.032633
				CHANNELS 3 Xrotation Yrotation Zrotation
				JOINT Spine1_split
				{
					OFFSET -0.002067 5.816869 0.032633
					CHANNELS 3 Xrotation Yrotation Zrotation
					JOINT Spine2
					{
						OFFSET -0.002067 5.816869 0.032633
						CHANNELS 3 Xrotation Yrotation Zrotation
						JOINT Neck_virtual
						{
							OFFSET 0.000000 0.000000 0.000000
							CHANNELS 3 Xrotation Yrotation Zrotation
							JOINT Neck
							{
								OFFSET -0.003700 21.199493 -0.826900
								CHANNELS 3 Xrotation Yrotation Zrotation
								JOINT Head
								{
									OFFSET 0.000000 20.442200 4.834800
									CHANNELS 3 Xrotation Yrotation Zrotation
									JOINT HeadTop_End
									{
										OFFSET 0.000000 34.668396 4.968400
										CHANNELS 3 Xrotation Yrotation Zrotation
										End Site
										{
											OFFSET 0 0 0
										}
									}
								}
							}
						}
						JOINT LeftShoulder_virtual
						{
							OFFSET 0.000000 0.000000 0.000000
							CHANNELS 3 Xrotation Yrotation Zrotation
							JOINT LeftShoulder
							{
								OFFSET 3.288150 8.794197 -1.372250
								CHANNELS 3 Xrotation Yrotation Zrotation
								JOINT LeftShoulder_split
								{
									OFFSET 3.288150 8.794197 -1.372250
									CHANNELS 3 Xrotation Yrotation Zrotation
									JOINT LeftArm
									{
										OFFSET 11.953299 -2.279007 -0.146200
										CHANNELS 3 Xrotation Yrotation Zrotation
										JOINT LeftForeArm
										{
											OFFSET 18.448900 0.000000 0.000000
											CHANNELS 3 Xrotation Yrotation Zrotation
											JOINT LeftHand
											{
												OFFSET 29.527798 0.000000 0.000000
												CHANNELS 3 Xrotation Yrotation Zrotation
												End Site
												{
													OFFSET 0 0 0
												}
											}
										}
									}
								}
							}
						}
						JOINT RightShoulder_virtual
						{
							OFFSET 0.000000 0.000000 0.000000
							CHANNELS 3 Xrotation Yrotation Zrotation
							JOINT RightShoulder
							{
								OFFSET -3.249400 8.794197 -1.372250
								CHANNELS 3 Xrotation Yrotation Zrotation
								JOINT RightShoulder_split
								{
									OFFSET -3.249400 8.794197 -1.372250
									CHANNELS 3 Xrotation Yrotation Zrotation
									JOINT RightArm
									{
										OFFSET -11.953299 -2.279007 -0.146200
										CHANNELS 3 Xrotation Yrotation Zrotation
										JOINT RightForeArm
										{
											OFFSET -18.448900 0.000000 0.000000
											CHANNELS 3 Xrotation Yrotation Zrotation
											JOINT RightHand
											{
												OFFSET -29.527802 0.000000 0.000000
												CHANNELS 3 Xrotation Yrotation Zrotation
												End Site
												{
													OFFSET 0 0 0
												}
											}
										}
									}
								}
							}
						}
					}
				}
			}
		}
	}
}
MOTION
Frames: 8
Frame Time: 0.03333333
7.453823 99.374611 6.463299 0.000000 0.000000 0.000000 -4.994680 10.807396 7.300860 -17.085684 -2.648530 -1.771804 23.629263 7.220880 -3.565200 -1.946754 11.377780 -1.582365 -1.482129 0.369486 -0.690631 0.000000 0.000000 0.000000 -4.253955 10.881501 6.837887 6.045041 -11.845269 -17.080158 16.618707 -13.005342 -1.431059 -4.596785 -29.025900 25.083506 -4.954607 0.474525 -1.887105 0.000000 0.000000 0.000000 -0.502260 10.438741 5.837053 4.654778 3.282041 12.931233 7.279477 6.084983 1.219534 0.640050 -1.091541 0.403124 0.000000 0.000000 0.000000 1.401065 5.781442 2.812855 -13.249464 -10.438729 -4.394709 5.003954 -11.438116 -4.823761 0.000000 0.000000 0.000000 0.672784 5.791014 1.879784 0.047394 0.896340 19.002898 1.607336 0.716638 -3.108325 -37.984902 2.319362 -9.642026 -22.527714 -30.073057 8.736755 0.000000 0.000000 0.000000 -0.917374 5.190986 2.372826 6.489433 1.604864 -1.526340 0.774700 3.021870 1.807938 38.158652 -49.180746 68.224164 -14.009637 31.080868 40.219511 0.000000 0.000000 0.000000 
6.931916 98.992386 7.069447 0.000000 0.000000 0.000000 -3.918926 21.490961 5.802345 -20.544272 -6.920661 -2.054065 23.765537 5.310743 -3.970108 -0.995575 9.719119 -2.316344 -2.057944 0.845723 -0.582738 0.000000 0.000000 0.000000 -3.536675 21.463344 5.434242 7.946695 -18.156055 -14.886686 15.851546 -13.784007 -1.120499 -5.585250 -28.207682 26.339704 -7.079517 0.133278 -1.165938 0.000000 0.000000 0.000000 1.160406 20.033087 4.350475 1.966535 4.547947 12.027422 6.439866 7.371835 -0.039055 0.701150 -1.058855 0.276676 0.000000 0.000000 0.000000 1.027599 6.991870 1.614203 -16.675951 -15.946439 -1.388155 7.664757 -16.928856 -3.380685 0.000000 0.000000 0.000000 0.146811 7.110466 0.360521 -1.223738 7.068390 17.483348 1.603618 0.127250 -3.294983 -50.759654 6.198384 -13.142170 -27.439780 -30.314234 6.980793 0.000000 0.000000 0.000000 -0.923964 6.612583 0.990946 6.164638 1.540446 -1.839268 -0.062169 3.494649 2.644546 34.834139 -52.994762 71.129542 -14.333731 35.937320 39.432284 0.000000 0.000000 0.000000 
6.329925 98.721970 7.638412 0.000000 0.000000 0.000000 -1.948907 30.485982 4.105034 -25.121897 -10.937700 -2.858688 25.004817 3.741846 -4.378050 0.778972 8.315774 -2.263872 -1.923545 1.148949 -0.933438 0.000000 0.000000 0.000000 -1.773365 30.680158 3.911947 8.605253 -24.090914 -12.799772 15.567601 -14.312817 -0.611839 -7.577524 -27.280074 26.112553 -8.061676 -0.138189 -0.585064 0.000000 0.000000 0.000000 2.993333 28.133981 2.825354 -0.458992 5.800384 10.916508 5.828001 8.477463 -1.427766 0.519980 -1.088834 0.150293 0.000000 0.000000 0.000000 0.921902 8.057578 0.162858 -20.096705 -20.977300 1.911224 10.135658 -21.155165 -1.541864 0.000000 0.000000 0.000000 -0.086475 8.216636 -1.222724 -1.950543 11.152530 13.704235 2.319729 -0.672317 -2.489391 -59.531505 7.707310 -18.421235 -31.917006 -29.078185 4.072432 0.000000 0.000000 0.000000 -0.653711 7.819363 -0.466464 5.879834 2.448385 -0.754824 -0.933486 4.242076 3.174579 27.492872 -51.253080 69.168212 -10.969175 39.393717 34.936363 0.000000 0.000000 0.000000 
5.698851 98.506104 7.959442 0.000000 0.000000 0.000000 0.570513 37.674299 2.286088 -29.866334 -14.524549 -4.303917 26.439165 2.633777 -4.574297 2.513753 7.414210 -1.324146 -1.102259 1.276378 -1.467065 0.000000 0.000000 0.000000 0.661854 38.194360 2.220429 8.418031 -29.265926 -11.201278 15.776349 -14.646909 -0.025380 -10.413499 -26.454629 24.413266 -7.669794 -0.291310 -0.252513 0.000000 0.000000 0.000000 4.693094 34.972324 1.307904 -2.532104 6.939750 9.568697 5.548774 9.417556 -2.626438 0.400756 -1.249822 0.000009 0.000000 0.000000 0.000000 1.113314 8.941127 -1.150516 -23.658828 -25.262510 4.643210 12.120160 -24.180647 0.370754 0.000000 0.000000 0.000000 -0.064695 9.157857 -2.459277 -2.191618 13.376268 8.157437 2.871563 -1.605872 -1.131075 -64.495045 8.374980 -24.331844 -35.756382 -27.109280 0.061491 0.000000 0.000000 0.000000 -0.062741 8.826367 -1.682529 5.568965 4.179550 1.343855 -1.901390 4.374396 3.418441 18.303848 -44.293135 63.360748 -4.602418 39.768285 27.491213 0.000000 0.000000 0.000000 
5.143732 98.305717 8.153713 0.000000 0.000000 0.000000 3.155827 43.082047 0.522304 -34.130138 -17.756566 -6.303273 27.582853 1.487303 -4.479037 3.847663 6.735487 -0.378845 -0.335383 1.242875 -1.931447 0.000000 0.000000 0.000000 3.225638 44.078312 0.494320 7.711264 -33.293453 -10.197275 16.475938 -14.599635 0.483981 -13.114701 -25.596573 22.238056 -7.012558 -0.341459 -0.252890 0.000000 0.000000 0.000000 6.329023 40.596845 -0.245670 -4.172079 7.888563 8.036047 5.559590 10.159762 -3.439978 0.211296 -1.186885 -0.033198 0.000000 0.000000 0.000000 1.695993 9.658447 -2.064677 -27.367624 -28.478906 6.147534 13.583206 -26.179292 2.075947 0.000000 0.000000 0.000000 0.173791 9.959401 -3.168485 -2.092004 14.121595 1.634054 2.736141 -1.780254 0.159239 -65.731787 9.656744 -29.372337 -38.987727 -26.470545 -5.261984 0.000000 0.000000 0.000000 0.751580 9.582359 -2.487220 5.202596 6.391236 3.671470 -2.999780 3.569170 3.069298 9.658892 -34.213715 55.843295 1.921093 36.903516 19.912616 0.000000 0.000000 0.000000 
4.702253 98.093216 8.091373 0.000000 0.000000 0.000000 5.501933 47.174836 -1.098360 -37.681447 -20.624050 -8.567152 28.142251 0.284489 -4.119845 4.620522 6.057105 0.286817 -0.623371 1.067104 -1.822682 0.000000 0.000000 0.000000 5.671544 48.599087 -1.279296 6.767106 -36.088097 -9.626931 17.564590 -14.065239 0.815448 -14.725415 -24.639486 20.537252 -6.906264 -0.339325 -0.517078 0.000000 0.000000 0.000000 7.867553 45.551662 -1.841972 -5.265944 8.631640 6.448867 5.761257 10.710682 -3.880293 0.327791 -1.231067 -0.142644 0.000000 0.000000 0.000000 2.600353 10.187777 -2.510980 -30.836402 -30.435924 6.292128 14.593249 -27.087398 3.246937 0.000000 0.000000 0.000000 0.468293 10.608575 -3.381597 -1.866355 14.269186 -4.969972 1.706176 -1.163878 1.154239 -64.929636 13.134058 -32.716186 -41.550032 -28.122645 -11.697777 0.000000 0.000000 0.000000 1.637702 10.113289 -2.908838 4.861177 8.504387 5.430475 -4.321232 1.839788 2.676561 2.121051 -23.850244 47.878854 6.430142 32.216834 14.167677 0.000000 0.000000 0.000000 
4.381308 97.845108 8.019905 0.000000 0.000000 0.000000 7.668677 50.407592 -2.718235 -40.811801 -23.130234 -10.811806 28.445895 -0.889944 -3.665087 5.236850 5.340504 0.381697 -1.031159 0.802425 -1.562473 0.000000 0.000000 0.000000 7.886608 52.110747 -3.085403 5.912718 -37.950379 -9.153204 18.570735 -13.136856 0.866756 -15.120745 -23.645420 19.523068 -6.992787 -0.302548 -0.882355 0.000000 0.000000 0.000000 9.334995 49.879461 -3.457565 -5.937070 9.157548 5.068804 5.957034 11.071761 -4.004428 0.666503 -0.883713 -0.265896 0.000000 0.000000 0.000000 3.631829 10.522315 -2.631337 -33.559913 -31.165938 5.526239 15.322592 -27.116969 3.808116 0.000000 0.000000 0.000000 0.780349 11.111226 -3.313376 -1.586673 14.578614 -10.919332 -0.188237 -0.230526 1.702261 -63.766236 18.712767 -34.773548 -43.743837 -32.351338 -19.012373 0.000000 0.000000 0.000000 2.444894 10.433262 -3.111485 4.627031 10.212063 6.181613 -5.783833 0.053103 2.302130 -4.872841 -15.901606 40.166522 8.456547 28.111599 10.545655 0.000000 0.000000 0.000000 
4.131357 97.577713 7.904346 0.000000 0.000000 0.000000 9.690841 52.918817 -4.383924 -43.620733 -25.168253 -12.736970 28.714235 -1.979512 -3.352101 5.961156 4.628108 -0.016151 -1.133577 0.521144 -1.232419 0.000000 0.000000 0.000000 10.057169 54.924112 -5.050422 5.292296 -39.142011 -8.517388 18.982911 -12.111285 0.620752 -15.127914 -22.762118 18.715362 -6.393462 -0.244481 -1.081421 0.000000 0.000000 0.000000 10.851884 53.419760 -5.151905 -6.355871 9.499789 4.010231 6.031238 11.226582 -3.963505 1.173787 -0.475029 -0.283688 0.000000 0.000000 0.000000 4.653476 10.667810 -2.643622 -35.140319 -31.007088 4.514621 15.826119 -26.350426 3.823241 0.000000 0.000000 0.000000 1.062171 11.408122 -3.173421 -1.195467 15.460558 -15.722341 -1.431386 0.553247 2.151296 -63.212889 24.818536 -35.980170 -45.868948 -38.868820 -27.006349 0.000000 0.000000 0.000000 3.031562 10.553489 -3.265450 4.564184 11.403802 5.763527 -6.948445 -1.303293 1.811239 -12.240835 -11.512636 33.486355 8.722487 26.250973 8.414351 0.000000 0.000000 0.000000 
